<svg width="40" height="40" viewBox="0 0 40 40" fill="none" xmlns="http://www.w3.org/2000/svg">
<rect width="40" height="40" rx="8" fill="white"/>
<path d="M15 25.9983C12.825 25.9862 11.6471 25.8897 10.8787 25.1213C10 24.2426 10 22.8284 10 20L10 16C10 13.1716 10 11.7574 10.8787 10.8787C11.7574 10 13.1716 10 16 10L24 10C26.8284 10 28.2426 10 29.1213 10.8787C30 11.7574 30 13.1716 30 16V20C30 22.8284 30 24.2426 29.1213 25.1213C28.3915 25.8512 27.2921 25.9748 25.3197 25.9957L24.5 25.9983" stroke="#1D1D1B" stroke-width="1.5"/>
<path d="M17 14L23 14" stroke="#1D1D1B" stroke-width="1.5" stroke-linecap="round"/>
<path d="M15 17.5H25" stroke="#1D1D1B" stroke-width="1.5" stroke-linecap="round"/>
<path d="M18.891 21.9452C19.5302 21.4004 20.4704 21.4004 21.1096 21.9452C21.3836 22.1786 21.7242 22.3197 22.0829 22.3483C22.9202 22.4152 23.585 23.08 23.6518 23.9172C23.6804 24.276 23.8215 24.6165 24.0549 24.8905C24.5997 25.5297 24.5997 26.4699 24.0549 27.1092C23.8215 27.3831 23.6804 27.7237 23.6518 28.0824C23.585 28.9197 22.9202 29.5845 22.0829 29.6513C21.7242 29.6799 21.3836 29.821 21.1096 30.0544C20.4704 30.5992 19.5302 30.5992 18.891 30.0544C18.617 29.821 18.2764 29.6799 17.9177 29.6513C17.0805 29.5845 16.4156 28.9197 16.3488 28.0824C16.3202 27.7237 16.1791 27.3831 15.9457 27.1092C15.4009 26.4699 15.4009 25.5297 15.9457 24.8905C16.1791 24.6165 16.3202 24.276 16.3488 23.9172C16.4156 23.08 17.0805 22.4152 17.9177 22.3483C18.2764 22.3197 18.617 22.1786 18.891 21.9452Z" stroke="#0063D7" stroke-width="1.5"/>
<path d="M18.5 26.2L19.3571 27L21.5 25" stroke="#0063D7" stroke-width="1.5" stroke-linecap="round" stroke-linejoin="round"/>
</svg>
