<svg width="40" height="40" viewBox="0 0 40 40" fill="none" xmlns="http://www.w3.org/2000/svg">
<rect width="40" height="40" rx="8" fill="white"/>
<path d="M10 19.5C10 15.7288 10 13.8431 11.1716 12.6716C12.3431 11.5 14.2288 11.5 18 11.5H22C25.7712 11.5 27.6569 11.5 28.8284 12.6716C30 13.8431 30 15.7288 30 19.5V21.5C30 25.2712 30 27.1569 28.8284 28.3284C27.6569 29.5 25.7712 29.5 22 29.5H18C14.2288 29.5 12.3431 29.5 11.1716 28.3284C10 27.1569 10 25.2712 10 21.5V19.5Z" stroke="#1D1D1B" stroke-width="1.5"/>
<path d="M15 11.5V10" stroke="#1D1D1B" stroke-width="1.5" stroke-linecap="round"/>
<path d="M25 11.5V10" stroke="#1D1D1B" stroke-width="1.5" stroke-linecap="round"/>
<path d="M10.5 16.5H29.5" stroke="#1D1D1B" stroke-width="1.5" stroke-linecap="round"/>
<path d="M26 24.5C26 25.0523 25.5523 25.5 25 25.5C24.4477 25.5 24 25.0523 24 24.5C24 23.9477 24.4477 23.5 25 23.5C25.5523 23.5 26 23.9477 26 24.5Z" fill="#0063D7"/>
<path d="M26 20.5C26 21.0523 25.5523 21.5 25 21.5C24.4477 21.5 24 21.0523 24 20.5C24 19.9477 24.4477 19.5 25 19.5C25.5523 19.5 26 19.9477 26 20.5Z" fill="#0063D7"/>
<path d="M21 24.5C21 25.0523 20.5523 25.5 20 25.5C19.4477 25.5 19 25.0523 19 24.5C19 23.9477 19.4477 23.5 20 23.5C20.5523 23.5 21 23.9477 21 24.5Z" fill="#0063D7"/>
<path d="M21 20.5C21 21.0523 20.5523 21.5 20 21.5C19.4477 21.5 19 21.0523 19 20.5C19 19.9477 19.4477 19.5 20 19.5C20.5523 19.5 21 19.9477 21 20.5Z" fill="#0063D7"/>
<path d="M16 24.5C16 25.0523 15.5523 25.5 15 25.5C14.4477 25.5 14 25.0523 14 24.5C14 23.9477 14.4477 23.5 15 23.5C15.5523 23.5 16 23.9477 16 24.5Z" fill="#0063D7"/>
<path d="M16 20.5C16 21.0523 15.5523 21.5 15 21.5C14.4477 21.5 14 21.0523 14 20.5C14 19.9477 14.4477 19.5 15 19.5C15.5523 19.5 16 19.9477 16 20.5Z" fill="#0063D7"/>
</svg>
