<svg width="40" height="40" viewBox="0 0 40 40" fill="none" xmlns="http://www.w3.org/2000/svg">
<rect width="40" height="40" rx="8" fill="white"/>
<path d="M10 18C10 15.1716 10 13.7574 10.8787 12.8787C11.7574 12 13.1716 12 16 12H21C23.8284 12 25.2426 12 26.1213 12.8787C27 13.7574 27 15.1716 27 18C27 20.8284 27 22.2426 26.1213 23.1213C25.2426 24 23.8284 24 21 24H16C13.1716 24 11.7574 24 10.8787 23.1213C10 22.2426 10 20.8284 10 18Z" stroke="#1D1D1B" stroke-width="1.5"/>
<path d="M27.0001 15.0762C27.9751 15.1721 28.6315 15.3888 29.1214 15.8787C30.0001 16.7574 30.0001 18.1716 30.0001 21.0001C30.0001 23.8285 30.0001 25.2427 29.1214 26.1214C28.2427 27.0001 26.8285 27.0001 24.0001 27.0001H19.0001C16.1716 27.0001 14.7574 27.0001 13.8787 26.1214C13.3888 25.6315 13.1721 24.9751 13.0762 24" stroke="#1D1D1B" stroke-width="1.5"/>
<path d="M21 18C21 19.3807 19.8807 20.5 18.5 20.5C17.1193 20.5 16 19.3807 16 18C16 16.6193 17.1193 15.5 18.5 15.5C19.8807 15.5 21 16.6193 21 18Z" stroke="#0063D7" stroke-width="1.5"/>
<path d="M24 20L24 16" stroke="#0063D7" stroke-width="1.5" stroke-linecap="round"/>
<path d="M13 20L13 16" stroke="#0063D7" stroke-width="1.5" stroke-linecap="round"/>
</svg>
