<svg width="40" height="40" viewBox="0 0 40 40" fill="none" xmlns="http://www.w3.org/2000/svg">
<rect width="40" height="40" rx="8" fill="white"/>
<path d="M20 16V20L22.5 22.5" stroke="#0063D7" stroke-width="1.5" stroke-linecap="round" stroke-linejoin="round"/>
<path d="M13.6041 13.6041L13.0738 13.0738V13.0738L13.6041 13.6041ZM12.3378 14.8705L11.5878 14.8743C11.5898 15.2856 11.9227 15.6184 12.334 15.6205L12.3378 14.8705ZM14.8795 15.6333C15.2938 15.6354 15.6312 15.3013 15.6333 14.8871C15.6354 14.4729 15.3013 14.1354 14.8871 14.1333L14.8795 15.6333ZM13.075 12.3212C13.0729 11.907 12.7354 11.5729 12.3212 11.575C11.907 11.5771 11.5729 11.9145 11.575 12.3287L13.075 12.3212ZM11.8266 18.7849C11.8829 18.3745 11.5958 17.9963 11.1854 17.94C10.775 17.8838 10.3968 18.1708 10.3405 18.5812L11.8266 18.7849ZM26.8622 13.1378C23.042 9.31758 16.8687 9.27889 13.0738 13.0738L14.1345 14.1345C17.3336 10.9354 22.5571 10.9539 25.8016 14.1984L26.8622 13.1378ZM13.1378 26.8622C16.958 30.6824 23.1313 30.7211 26.9262 26.9262L25.8655 25.8655C22.6664 29.0646 17.4429 29.0461 14.1984 25.8016L13.1378 26.8622ZM26.9262 26.9262C30.7211 23.1313 30.6824 16.958 26.8622 13.1378L25.8016 14.1984C29.0461 17.4429 29.0646 22.6664 25.8655 25.8655L26.9262 26.9262ZM13.0738 13.0738L11.8074 14.3402L12.8681 15.4009L14.1345 14.1345L13.0738 13.0738ZM12.334 15.6205L14.8795 15.6333L14.8871 14.1333L12.3415 14.1205L12.334 15.6205ZM13.0878 14.8668L13.075 12.3212L11.575 12.3287L11.5878 14.8743L13.0878 14.8668ZM10.3405 18.5812C9.93907 21.5099 10.8739 24.5984 13.1378 26.8622L14.1984 25.8016C12.2779 23.881 11.4866 21.2652 11.8266 18.7849L10.3405 18.5812Z" fill="#1D1D1B"/>
</svg>
