<svg width="40" height="40" viewBox="0 0 40 40" fill="none" xmlns="http://www.w3.org/2000/svg">
<rect width="40" height="40" rx="8" fill="white"/>
<path d="M13.148 19.952C12.358 18.5744 11.9765 17.4496 11.7465 16.3093C11.4064 14.623 12.1848 12.9757 13.4745 11.9245C14.0195 11.4803 14.6444 11.6321 14.9667 12.2103L15.6943 13.5157C16.2711 14.5505 16.5595 15.0678 16.5023 15.6163C16.4451 16.1648 16.0561 16.6115 15.2783 17.505L13.148 19.952ZM13.148 19.952C14.7471 22.7402 17.2565 25.2511 20.048 26.852M20.048 26.852C21.4256 27.642 22.5504 28.0235 23.6907 28.2535C25.377 28.5937 27.0243 27.8152 28.0754 26.5255C28.5197 25.9805 28.3679 25.3557 27.7897 25.0333L26.4843 24.3057C25.4495 23.7289 24.9322 23.4406 24.3837 23.4977C23.8352 23.5549 23.3884 23.9438 22.495 24.7217L20.048 26.852Z" stroke="black" stroke-width="1.5" stroke-linejoin="round"/>
<path d="M21.6667 15.6932C22.8527 16.1969 23.8032 17.1473 24.3068 18.3333M22.2117 11.6667C25.1593 12.5173 27.4826 14.8404 28.3333 17.788" stroke="#0063D7" stroke-width="1.5" stroke-linecap="round"/>
</svg>
