<svg width="40" height="40" viewBox="0 0 40 40" fill="none" xmlns="http://www.w3.org/2000/svg">
<rect width="40" height="40" rx="8" fill="white"/>
<path d="M15.4545 25.453C13.4772 25.442 12.4064 25.3543 11.7079 24.6557C10.9091 23.8569 10.9091 22.5713 10.9091 20L10.9091 16.3636C10.9091 13.7923 10.9091 12.5067 11.7079 11.7079C12.5067 10.9091 13.7923 10.9091 16.3636 10.9091L23.6364 10.9091C26.2077 10.9091 27.4933 10.9091 28.2921 11.7079C29.0909 12.5067 29.0909 13.7923 29.0909 16.3636V20C29.0909 22.5713 29.0909 23.8569 28.2921 24.6557C27.6286 25.3193 26.6292 25.4316 24.836 25.4507L24.0909 25.453" stroke="#1D1D1B" stroke-width="1.5"/>
<path d="M17.2727 14.5455L22.7273 14.5455" stroke="#1D1D1B" stroke-width="1.5" stroke-linecap="round"/>
<path d="M15.4546 17.7273H24.5455" stroke="#1D1D1B" stroke-width="1.5" stroke-linecap="round"/>
<path d="M18.9918 21.7684C19.5729 21.2731 20.4277 21.2731 21.0088 21.7684C21.2578 21.9806 21.5674 22.1088 21.8936 22.1349C22.6547 22.1956 23.2591 22.8 23.3198 23.5611C23.3458 23.8872 23.4741 24.1969 23.6863 24.4459C24.1816 25.027 24.1816 25.8817 23.6863 26.4629C23.4741 26.7119 23.3458 27.0215 23.3198 27.3477C23.2591 28.1088 22.6547 28.7132 21.8936 28.7739C21.5674 28.7999 21.2578 28.9282 21.0088 29.1404C20.4277 29.6356 19.5729 29.6356 18.9918 29.1404C18.7428 28.9282 18.4331 28.7999 18.107 28.7739C17.3459 28.7132 16.7415 28.1088 16.6808 27.3477C16.6547 27.0215 16.5265 26.7119 16.3143 26.4629C15.819 25.8817 15.819 25.027 16.3143 24.4459C16.5265 24.1969 16.6547 23.8872 16.6808 23.5611C16.7415 22.8 17.3459 22.1956 18.107 22.1349C18.4331 22.1088 18.7428 21.9806 18.9918 21.7684Z" stroke="#0063D7" stroke-width="1.5"/>
<path d="M18.6364 25.6364L19.4156 26.3636L21.3636 24.5455" stroke="#0063D7" stroke-width="1.5" stroke-linecap="round" stroke-linejoin="round"/>
</svg>
