<svg width="40" height="40" viewBox="0 0 40 40" fill="none" xmlns="http://www.w3.org/2000/svg">
<rect width="40" height="40" rx="8" fill="white"/>
<path d="M27.5 19.1667V18.3333C27.5 15.1906 27.5 13.6193 26.4663 12.643C25.4325 11.6667 23.7687 11.6667 20.4412 11.6667H19.5588C16.2313 11.6667 14.5675 11.6667 13.5337 12.643C12.5 13.6193 12.5 15.1906 12.5 18.3333V21.6667C12.5 24.8093 12.5 26.3807 13.5337 27.357C14.5675 28.3333 16.2313 28.3333 19.5588 28.3333H20" stroke="black" stroke-width="1.5" stroke-linecap="round"/>
<path d="M16.6667 15.8333H23.3333" stroke="#0063D7" stroke-width="1.5" stroke-linecap="round"/>
<path d="M16.6667 20H20.8333" stroke="#0063D7" stroke-width="1.5" stroke-linecap="round"/>
<path d="M27.5 27.2059V24.1667C27.5 22.9755 26.3807 21.6667 25 21.6667C23.6192 21.6667 22.5 22.9755 22.5 24.1667V27.0833C22.5 27.7331 23.1105 28.3333 23.8637 28.3333C24.6168 28.3333 25.2272 27.7331 25.2272 27.0833V24.8039" stroke="black" stroke-width="1.5" stroke-linecap="round"/>
</svg>
