<svg width="40" height="40" viewBox="0 0 40 40" fill="none" xmlns="http://www.w3.org/2000/svg">
<rect width="40" height="40" rx="8" fill="white"/>
<path d="M22.0833 17.5C22.0833 18.6506 21.1506 19.5833 20 19.5833C18.8494 19.5833 17.9167 18.6506 17.9167 17.5C17.9167 16.3494 18.8494 15.4167 20 15.4167C21.1506 15.4167 22.0833 16.3494 22.0833 17.5Z" stroke="#0063D7" stroke-width="1.5"/>
<path d="M21.0478 24.578C20.7667 24.8487 20.3911 25 20.0002 25C19.6092 25 19.2335 24.8487 18.9524 24.578C16.3786 22.084 12.9293 19.2979 14.6114 15.2531C15.5209 13.0661 17.7041 11.6667 20.0002 11.6667C22.2962 11.6667 24.4793 13.0661 25.3888 15.2531C27.0688 19.2928 23.628 22.0926 21.0478 24.578Z" stroke="black" stroke-width="1.5"/>
<path d="M25 26.6667C25 27.5872 22.7614 28.3333 20 28.3333C17.2386 28.3333 15 27.5872 15 26.6667" stroke="black" stroke-width="1.5" stroke-linecap="round"/>
</svg>
