<svg width="20" height="20" viewBox="0 0 20 20" fill="none" xmlns="http://www.w3.org/2000/svg">
<path d="M10 3.58333C10 2.29467 8.95067 1.25 7.65625 1.25H2.96875C1.67433 1.25 0.625 2.29467 0.625 3.58333V8.25C0.625 9.53866 1.67433 10.5833 2.96875 10.5833H7.07031C8.68833 10.5833 10 11.8892 10 13.5V16.4167C10 17.7053 11.0493 18.75 12.3438 18.75H17.0312C18.3257 18.75 19.375 17.7053 19.375 16.4167V11.75C19.375 10.4613 18.3257 9.41667 17.0312 9.41667H12.3438C11.0493 9.41667 10 8.372 10 7.08333V3.58333Z" stroke="#0063D7"/>
<path d="M12.3438 1.25C11.0493 1.25 10 2.29467 10 3.58333V7.08333C10 8.372 11.0493 9.41667 12.3438 9.41667H17.0312C17.6257 9.41667 18.1684 9.63696 18.5815 10C19.0681 9.57245 19.375 8.9469 19.375 8.25V3.58333C19.375 2.29467 18.3257 1.25 17.0312 1.25H12.3438Z" stroke="#0063D7"/>
<path d="M1.41846 10C0.931888 10.4276 0.625 11.0531 0.625 11.75V16.4167C0.625 17.7053 1.67433 18.75 2.96875 18.75H7.65625C8.95067 18.75 10 17.7053 10 16.4167V13.5C10 11.8892 8.68833 10.5833 7.07031 10.5833H2.96875C2.37435 10.5833 1.83163 10.363 1.41846 10Z" stroke="#0063D7"/>
</svg>
