<svg width="119" height="110" viewBox="0 0 119 110" fill="none" xmlns="http://www.w3.org/2000/svg">
<g opacity="0.1">
<path d="M4.89058 52.4123C6.18765 55.0717 8.48799 57.1069 11.2856 58.0702C14.0833 59.0335 17.1489 58.846 19.8083 57.5489C22.4677 56.2518 24.5029 53.9515 25.4662 51.1538C26.4295 48.3562 26.242 45.2905 24.9449 42.6311C23.6479 39.9718 21.3475 37.9366 18.5499 36.9733C15.7522 36.01 12.6866 36.1975 10.0272 37.4946C7.36779 38.7916 5.33261 41.092 4.36931 43.8896C3.406 46.6872 3.59351 49.7529 4.89058 52.4123Z" stroke="#1D1D1B" stroke-width="7.4375" stroke-linecap="round" stroke-linejoin="round"/>
<path d="M23.0694 64.2337C18.6371 66.3954 15.2451 70.2295 13.6395 74.8919C12.0341 79.5547 12.3465 84.6641 14.5084 89.0966L19.399 99.1238L26.0837 95.8634L42.4677 120.972L55.8372 114.452" stroke="#1D1D1B" stroke-width="7.4375" stroke-linecap="round" stroke-linejoin="round"/>
<path d="M71.7392 19.8083C73.0363 22.4677 75.3368 24.5027 78.1342 25.4662C80.932 26.4294 83.9978 26.2419 86.657 24.9449C89.3162 23.6479 91.3514 21.3475 92.3149 18.5498C93.2779 15.7523 93.0906 12.6865 91.7936 10.0271C90.4965 7.36776 88.1959 5.3327 85.3985 4.36926C82.6007 3.40604 79.535 3.59357 76.8758 4.89055C74.2166 6.18753 72.1814 8.48789 71.2179 11.2856C70.2549 14.0831 70.4421 17.1489 71.7392 19.8083Z" stroke="#1D1D1B" stroke-width="7.4375" stroke-linecap="round" stroke-linejoin="round"/>
<path d="M89.9172 31.6301C94.3497 29.4683 99.4591 29.1559 104.122 30.761C108.784 32.3668 112.618 35.7587 114.78 40.1911L119.671 50.2183L112.986 53.4787L122.685 81.848L109.316 88.3688" stroke="#1D1D1B" stroke-width="7.4375" stroke-linecap="round" stroke-linejoin="round"/>
<path d="M30.0823 27.7137C31.8117 31.2595 34.8789 33.9731 38.609 35.2575C42.3392 36.5419 46.427 36.2918 49.9726 34.5625C53.5182 32.8332 56.232 29.7659 57.5164 26.0358C58.8007 22.3056 58.5508 18.218 56.8214 14.6721C55.092 11.1263 52.0247 8.41278 48.2946 7.12836C44.5645 5.84394 40.4767 6.09404 36.9311 7.82335C33.3855 9.55265 30.6717 12.6199 29.3873 16.3501C28.1029 20.0802 28.3529 24.1678 30.0823 27.7137Z" stroke="#0063D7" stroke-width="7.4375" stroke-linecap="round" stroke-linejoin="round"/>
<path d="M88.0408 53.2326C85.0142 47.0273 79.647 42.2788 73.1189 40.0309C66.591 37.7833 59.4379 38.2207 53.2327 41.2472C47.0274 44.2737 42.2787 49.6412 40.031 56.169C37.7834 62.697 38.2208 69.85 41.2473 76.0553L46.1379 86.0825L56.165 81.1919L75.8094 112.986L95.8637 103.204L82.9042 68.1504L92.9313 63.2598L88.0408 53.2326Z" stroke="#0063D7" stroke-width="7.4375" stroke-linecap="round" stroke-linejoin="round"/>
</g>
</svg>
