<svg width="128" height="121" viewBox="0 0 128 121" fill="none" xmlns="http://www.w3.org/2000/svg">
<g opacity="0.1">
<path d="M24.9065 104.066C15.0194 83.7943 10.0759 73.6586 13.3019 64.2896C16.5279 54.9205 26.6637 49.977 46.9351 40.0899L68.4362 29.6031C88.7077 19.7161 98.8434 14.7726 108.212 17.9986C117.582 21.2246 122.525 31.3603 132.412 51.6318L137.655 62.3824C147.543 82.6538 152.486 92.7895 149.26 102.159C146.034 111.528 135.898 116.471 115.627 126.358L94.1257 136.845C73.8543 146.732 63.7185 151.676 54.3495 148.45C44.9804 145.224 40.0369 135.088 30.1499 114.816L24.9065 104.066Z" stroke="#1D1D1B" stroke-width="8.97082"/>
<path d="M30.8123 47.9551L26.8798 39.8922" stroke="#1D1D1B" stroke-width="8.97082" stroke-linecap="round"/>
<path d="M84.5613 21.7376L80.6288 13.6747" stroke="#1D1D1B" stroke-width="8.97082" stroke-linecap="round"/>
<path d="M19.7314 86.6298L121.862 36.8175" stroke="#1D1D1B" stroke-width="8.97082" stroke-linecap="round"/>
<path d="M124.024 88.9953C125.472 91.9639 124.239 95.5443 121.271 96.9922C118.302 98.4402 114.721 97.2073 113.274 94.2387C111.826 91.27 113.058 87.6896 116.027 86.2417C118.996 84.7937 122.576 86.0266 124.024 88.9953Z" fill="#0063D7"/>
<path d="M113.537 67.4941C114.985 70.4628 113.752 74.0432 110.784 75.4911C107.815 76.939 104.235 75.7062 102.787 72.7375C101.339 69.7688 102.572 66.1885 105.54 64.7405C108.509 63.2926 112.089 64.5254 113.537 67.4941Z" fill="#0063D7"/>
<path d="M97.1462 102.104C98.5941 105.073 97.3613 108.653 94.3926 110.101C91.4239 111.549 87.8435 110.316 86.3956 107.348C84.9477 104.379 86.1805 100.798 89.1492 99.3506C92.1179 97.9026 95.6982 99.1355 97.1462 102.104Z" fill="#0063D7"/>
<path d="M86.6594 80.603C88.1073 83.5717 86.8745 87.1521 83.9058 88.6C80.9371 90.0479 77.3567 88.8151 75.9088 85.8464C74.4609 82.8777 75.6937 79.2974 78.6624 77.8494C81.6311 76.4015 85.2114 77.6343 86.6594 80.603Z" fill="#0063D7"/>
<path d="M70.2692 115.213C71.7171 118.182 70.4843 121.762 67.5156 123.21C64.547 124.658 60.9666 123.425 59.5187 120.456C58.0707 117.488 59.3036 113.907 62.2722 112.459C65.2409 111.012 68.8213 112.244 70.2692 115.213Z" fill="#0063D7"/>
<path d="M59.7824 93.7119C61.2303 96.6806 59.9975 100.261 57.0288 101.709C54.0602 103.157 50.4798 101.924 49.0319 98.9553C47.5839 95.9866 48.8168 92.4062 51.7854 90.9583C54.7541 89.5104 58.3345 90.7432 59.7824 93.7119Z" fill="#0063D7"/>
</g>
</svg>
