<svg width="118" height="114" viewBox="0 0 118 114" fill="none" xmlns="http://www.w3.org/2000/svg">
<g opacity="0.1">
<path d="M60.7959 49.6593L71.1137 70.8139L90.7839 77.5869" stroke="#0063D7" stroke-width="9.8089" stroke-linecap="round" stroke-linejoin="round"/>
<path d="M20.7894 53.4851L16.1522 51.8884L16.1522 51.8884L20.7894 53.4851ZM17.3585 63.4491L12.9613 65.6212C14.1524 68.0325 17.0632 69.0348 19.4863 67.868L17.3585 63.4491ZM32.9818 61.3695C35.4223 60.1944 36.448 57.2633 35.2729 54.8229C34.0977 52.3824 31.1667 51.3567 28.7262 52.5318L32.9818 61.3695ZM15.122 47.8475C13.9224 45.419 10.9812 44.4228 8.55268 45.6224C6.12415 46.822 5.12792 49.7632 6.32754 52.1917L15.122 47.8475ZM25.219 85.316C24.3732 82.7428 21.6015 81.3425 19.0283 82.1883C16.4551 83.034 15.0547 85.8057 15.9005 88.3789L25.219 85.316ZM89.8637 16.3556C59.5539 5.91912 26.5232 21.7687 16.1522 51.8884L25.4267 55.0819C34.0038 30.172 61.3945 16.927 86.6702 25.6301L89.8637 16.3556ZM52.3615 125.27C82.6712 135.706 115.702 119.857 126.073 89.7372L116.798 86.5437C108.221 111.454 80.8306 124.699 55.5549 115.995L52.3615 125.27ZM126.073 89.7372C136.444 59.6175 120.173 26.7921 89.8637 16.3556L86.6702 25.6301C111.946 34.3332 125.376 61.6338 116.798 86.5437L126.073 89.7372ZM16.1522 51.8884L12.7213 61.8524L21.9958 65.0458L25.4267 55.0819L16.1522 51.8884ZM19.4863 67.868L32.9818 61.3695L28.7262 52.5318L15.2307 59.0303L19.4863 67.868ZM21.7558 61.277L15.122 47.8475L6.32754 52.1917L12.9613 65.6212L21.7558 61.277ZM15.9005 88.3789C21.3782 105.044 34.3989 119.085 52.3615 125.27L55.5549 115.995C40.594 110.844 29.7725 99.1696 25.219 85.316L15.9005 88.3789Z" fill="#1D1D1B"/>
</g>
</svg>
