<svg width="121" height="112" viewBox="0 0 121 112" fill="none" xmlns="http://www.w3.org/2000/svg">
<g opacity="0.1">
<path d="M15.8132 85.1321C8.35877 69.8483 4.63157 62.2064 7.06384 55.1426C9.49612 48.0788 17.138 44.3516 32.4218 36.8972L59.4399 23.7195C74.7237 16.2651 82.3656 12.5379 89.4295 14.9702C96.4933 17.4025 100.22 25.0444 107.675 40.3282C115.129 55.6119 118.856 63.2538 116.424 70.3177C113.992 77.3815 106.35 81.1087 91.0663 88.5631L64.0481 101.741C48.7643 109.195 41.1224 112.922 34.0586 110.49C26.9948 108.058 23.2676 100.416 15.8132 85.1321Z" stroke="#1D1D1B" stroke-width="9.01814"/>
<path d="M99.9689 24.5297C105.491 22.4781 109.609 21.9196 113.547 23.2757C120.611 25.7079 124.338 33.3498 131.792 48.6336C139.247 63.9174 142.974 71.5593 140.542 78.6231C138.109 85.687 130.468 89.4142 115.184 96.8686L88.1656 110.046C72.8818 117.501 65.2399 121.228 58.1761 118.796C54.2377 117.439 51.3366 114.464 48.2484 109.448" stroke="#1D1D1B" stroke-width="9.01814"/>
<path d="M75.2513 56.1417C78.8902 63.6026 75.7919 72.6007 68.331 76.2396C60.8701 79.8785 51.872 76.7802 48.2331 69.3194C44.5942 61.8585 47.6925 52.8604 55.1534 49.2215C62.6142 45.5826 71.6124 48.6809 75.2513 56.1417Z" stroke="#0063D7" stroke-width="9.01814"/>
<path d="M96.7336 59.0424L86.1915 37.4279" stroke="#0063D7" stroke-width="9.01814" stroke-linecap="round"/>
<path d="M37.2939 88.0311L26.7518 66.4166" stroke="#0063D7" stroke-width="9.01814" stroke-linecap="round"/>
</g>
</svg>
