<svg width="138" height="107" viewBox="0 0 138 107" fill="none" xmlns="http://www.w3.org/2000/svg">
<g opacity="0.1">
<path d="M66.9763 121.965C55.5671 127.451 49.159 129.952 43.1788 127.893C36.3401 125.538 32.7317 118.14 25.515 103.344L15.309 82.4181C8.09227 67.6216 4.48391 60.2234 6.83863 53.3848C9.19337 46.5461 16.5916 42.9378 31.3881 35.721L73.2389 15.309C88.0354 8.09228 95.4337 4.48391 102.272 6.83864C109.111 9.19337 112.719 16.5916 119.936 31.3881L130.142 52.3135C137.359 67.11 140.967 74.5083 138.612 81.3469C136.657 87.0273 131.221 90.479 120.956 95.6212L116.674 97.7258" stroke="#1D1D1B" stroke-width="8.73062"/>
<path d="M46.8252 54.0935L78.2133 38.7845" stroke="#1D1D1B" stroke-width="8.73062" stroke-linecap="round"/>
<path d="M45.2958 77.5089L97.6093 51.9939" stroke="#1D1D1B" stroke-width="8.73062" stroke-linecap="round"/>
<path d="M76.9907 90.8351C78.9449 86.3543 83.8634 83.9554 88.5974 85.1742C90.6261 85.6964 92.7678 85.5655 94.7177 84.7998C99.2679 83.0132 104.442 84.7948 106.928 89.0041C107.993 90.8079 109.6 92.2297 111.52 93.0671C116.001 95.0212 118.4 99.9397 117.181 104.674C116.659 106.702 116.79 108.844 117.555 110.794C119.342 115.344 117.561 120.518 113.351 123.004C111.547 124.069 110.126 125.676 109.288 127.597C107.334 132.077 102.416 134.476 97.6815 133.257C95.6529 132.735 93.5111 132.866 91.5612 133.632C87.011 135.418 81.8368 133.637 79.3512 129.428C78.286 127.624 76.6789 126.202 74.7588 125.365C70.2779 123.41 67.879 118.492 69.0978 113.758C69.6201 111.729 69.4891 109.587 68.7235 107.638C66.9368 103.087 68.7184 97.9132 72.9278 95.4275C74.7315 94.3623 76.1533 92.7553 76.9907 90.8351Z" stroke="#0063D7" stroke-width="8.73062"/>
<path d="M85.798 114.091L92.3232 116.089L98.4303 100.159" stroke="#0063D7" stroke-width="8.73062" stroke-linecap="round" stroke-linejoin="round"/>
</g>
</svg>
