<svg width="113" height="109" viewBox="0 0 113 109" fill="none" xmlns="http://www.w3.org/2000/svg">
<g opacity="0.1">
<circle cx="63.1478" cy="63.1478" r="52.9247" transform="rotate(-26 63.1478 63.1478)" stroke="#1D1D1B" stroke-width="11.3992"/>
<path d="M89.4182 81.8597C90.3301 79.775 89.3821 77.3091 87.1759 76.7517C84.9831 76.1976 82.7189 75.9423 80.4451 75.9978C76.7937 76.087 73.2063 76.9755 69.9353 78.6009C66.6644 80.2263 63.7896 82.549 61.5133 85.4054C60.0959 87.1841 58.932 89.1429 58.0492 91.2253C57.1611 93.3203 58.5539 95.5652 60.7662 96.0974C62.9786 96.6296 65.1613 95.2295 66.2163 93.2134C66.709 92.2719 67.2915 91.3767 67.9576 90.5408C69.4833 88.6263 71.41 87.0696 73.6023 85.9802C75.7945 84.8909 78.199 84.2953 80.6462 84.2356C81.7147 84.2095 82.7801 84.2859 83.828 84.4618C86.0721 84.8386 88.5062 83.9445 89.4182 81.8597Z" fill="#0063D7"/>
<circle cx="44.6035" cy="60.4158" r="7.32804" transform="rotate(-26 44.6035 60.4158)" fill="#0063D7"/>
<circle cx="72.4121" cy="46.8525" r="7.32804" transform="rotate(-26 72.4121 46.8525)" fill="#0063D7"/>
</g>
</svg>
