<svg width="134" height="120" viewBox="0 0 134 120" fill="none" xmlns="http://www.w3.org/2000/svg">
<g opacity="0.1">
<circle cx="50.8984" cy="61.5512" r="12" transform="rotate(-26 50.8984 61.5512)" stroke="#1D1D1B" stroke-width="8.95941"/>
<path d="M88.2529 83.3889C91.1582 89.3456 93.5134 94.1744 71.9423 104.695C50.3712 115.216 48.0161 110.387 45.1108 104.431C42.2055 98.474 49.508 88.9348 61.4214 83.1243C73.3348 77.3138 85.3476 77.4322 88.2529 83.3889Z" stroke="#1D1D1B" stroke-width="8.95941"/>
<path d="M21.0418 96.1422C11.1226 75.8048 6.16301 65.6361 9.39952 56.2366C12.636 46.8371 22.8047 41.8775 43.1421 31.9582L64.7132 21.4373C85.0506 11.5181 95.2192 6.55853 104.619 9.79504C114.018 13.0316 118.978 23.2002 128.897 43.5376C138.816 63.875 143.776 74.0437 140.539 83.4432C137.303 92.8428 127.134 97.8024 106.797 107.722L85.2257 118.242C64.8884 128.162 54.7197 133.121 45.3201 129.885C35.9206 126.648 30.961 116.48 21.0418 96.1422Z" stroke="#1D1D1B" stroke-width="8.95941"/>
<path d="M112.721 51.4268L91.1496 61.9477" stroke="#0063D7" stroke-width="8.95941" stroke-linecap="round"/>
<path d="M104.824 35.2491L77.8606 48.4002" stroke="#0063D7" stroke-width="8.95941" stroke-linecap="round"/>
<path d="M120.61 67.6055L104.432 75.4961" stroke="#0063D7" stroke-width="8.95941" stroke-linecap="round"/>
</g>
</svg>
