<svg width="117" height="118" viewBox="0 0 117 118" fill="none" xmlns="http://www.w3.org/2000/svg">
<g opacity="0.1">
<path d="M50.028 136.143L27.3399 89.6251C23.0618 80.8537 20.9227 76.4679 22.3186 72.414C23.7145 68.36 28.1002 66.2209 36.8717 61.9428C45.6431 57.6647 50.0288 55.5256 54.0828 56.9215C58.1368 58.3174 60.2758 62.7032 64.5539 71.4746" stroke="#1D1D1B" stroke-width="7.76333"/>
<path d="M115.152 104.379L101.539 76.4687C97.261 67.6973 95.1219 63.3116 91.0679 61.9157C87.014 60.5198 82.6282 62.6588 73.8568 66.9369L64.5533 71.4746C55.7819 75.7527 51.3962 77.8917 50.0003 81.9457C48.6044 85.9997 50.7434 90.3854 55.0215 99.1568L68.6344 127.067" stroke="#1D1D1B" stroke-width="7.76333"/>
<path d="M133.76 95.3031L101.479 29.1179C98.4369 22.8806 96.9158 19.762 94.0931 18.1794C91.2704 16.5968 87.8162 16.926 80.9079 17.5844C67.3978 18.8719 60.6427 19.5157 57.9919 24.2437C55.341 28.9716 58.3157 35.0706 64.265 47.2684L73.8575 66.936" stroke="#1D1D1B" stroke-width="7.76333"/>
<path d="M22.9164 68.7494L19.5132 61.7718C17.3742 57.3861 16.3046 55.1932 17.0026 53.1662C17.7005 51.1392 19.8934 50.0697 24.2791 47.9306L33.5826 43.393C37.9683 41.254 40.1612 40.1844 42.1882 40.8824C44.2152 41.5803 45.2847 43.7732 47.4237 48.1589L50.827 55.1365" stroke="#1D1D1B" stroke-width="7.76333" stroke-linecap="round"/>
<path d="M27.7964 43.3362L23.2588 34.0327" stroke="#1D1D1B" stroke-width="7.76333" stroke-linecap="round"/>
<path d="M138.411 93.0354L45.376 138.412" stroke="#1D1D1B" stroke-width="7.76333" stroke-linecap="round"/>
<path d="M66.709 87.6987L85.316 78.6235" stroke="#0063D7" stroke-width="7.76333" stroke-linecap="round"/>
<path d="M73.5146 101.654L92.1217 92.5786" stroke="#0063D7" stroke-width="7.76333" stroke-linecap="round"/>
</g>
</svg>
