<svg width="40" height="40" viewBox="0 0 40 40" fill="none" xmlns="http://www.w3.org/2000/svg">
<rect width="40" height="40" rx="8" fill="white"/>
<g clip-path="url(#clip0_12_604)">
<path d="M10.25 14C10.25 14.5967 10.487 15.169 10.909 15.591C11.331 16.013 11.9033 16.25 12.5 16.25C13.0967 16.25 13.669 16.013 14.091 15.591C14.513 15.169 14.75 14.5967 14.75 14C14.75 13.4033 14.513 12.831 14.091 12.409C13.669 11.987 13.0967 11.75 12.5 11.75C11.9033 11.75 11.331 11.987 10.909 12.409C10.487 12.831 10.25 13.4033 10.25 14Z" stroke="#1D1D1B" stroke-width="1.5" stroke-linecap="round" stroke-linejoin="round"/>
<path d="M12.5 17.75C11.5054 17.75 10.5516 18.1451 9.84835 18.8483C9.14509 19.5516 8.75 20.5054 8.75 21.5V23.75H10.25L11 29.75H14" stroke="#1D1D1B" stroke-width="1.5" stroke-linecap="round" stroke-linejoin="round"/>
<path d="M25.25 14C25.25 14.5967 25.4871 15.169 25.909 15.591C26.331 16.013 26.9033 16.25 27.5 16.25C28.0967 16.25 28.669 16.013 29.091 15.591C29.5129 15.169 29.75 14.5967 29.75 14C29.75 13.4033 29.5129 12.831 29.091 12.409C28.669 11.987 28.0967 11.75 27.5 11.75C26.9033 11.75 26.331 11.987 25.909 12.409C25.4871 12.831 25.25 13.4033 25.25 14Z" stroke="#1D1D1B" stroke-width="1.5" stroke-linecap="round" stroke-linejoin="round"/>
<path d="M27.5 17.75C28.4946 17.75 29.4484 18.1451 30.1517 18.8483C30.8549 19.5516 31.25 20.5054 31.25 21.5V23.75H29.75L29 29.75H26" stroke="#1D1D1B" stroke-width="1.5" stroke-linecap="round" stroke-linejoin="round"/>
<path d="M17 11.75C17 12.5457 17.3161 13.3087 17.8787 13.8713C18.4413 14.4339 19.2044 14.75 20 14.75C20.7956 14.75 21.5587 14.4339 22.1213 13.8713C22.6839 13.3087 23 12.5457 23 11.75C23 10.9543 22.6839 10.1913 22.1213 9.62868C21.5587 9.06607 20.7956 8.75 20 8.75C19.2044 8.75 18.4413 9.06607 17.8787 9.62868C17.3161 10.1913 17 10.9543 17 11.75Z" stroke="#D20000" stroke-width="1.5" stroke-linecap="round" stroke-linejoin="round"/>
<path d="M25.25 21.5C25.25 20.1076 24.6969 18.7723 23.7123 17.7877C22.7277 16.8031 21.3924 16.25 20 16.25C18.6076 16.25 17.2723 16.8031 16.2877 17.7877C15.3031 18.7723 14.75 20.1076 14.75 21.5V23.75H17L17.75 31.25H22.25L23 23.75H25.25V21.5Z" stroke="#D20000" stroke-width="1.5" stroke-linecap="round" stroke-linejoin="round"/>
</g>
<defs>
<clipPath id="clip0_12_604">
<rect width="24" height="24" fill="white" transform="translate(8 8)"/>
</clipPath>
</defs>
</svg>
