<svg width="49" height="48" viewBox="0 0 49 48" fill="none" xmlns="http://www.w3.org/2000/svg">
<path d="M14.5 18L24.5 25L34.5 18" stroke="black" stroke-width="1" stroke-linecap="round" stroke-linejoin="round"/>
<path d="M4.5 34V14C4.5 12.9391 4.92143 11.9217 5.67157 11.1716C6.42172 10.4214 7.43913 10 8.5 10H40.5C41.5609 10 42.5783 10.4214 43.3284 11.1716C44.0786 11.9217 44.5 12.9391 44.5 14V34C44.5 35.0609 44.0786 36.0783 43.3284 36.8284C42.5783 37.5786 41.5609 38 40.5 38H8.5C7.43913 38 6.42172 37.5786 5.67157 36.8284C4.92143 36.0783 4.5 35.0609 4.5 34Z" stroke="black" stroke-width="1"/>
</svg>
