<svg width="65" height="64" viewBox="0 0 65 64" fill="none" xmlns="http://www.w3.org/2000/svg">
<g clip-path="url(#clip0_787_18483)">
<mask id="path-1-inside-1_787_18483" fill="white">
<path fill-rule="evenodd" clip-rule="evenodd" d="M51.2078 12.21C40.8301 1.83235 24.0046 1.83235 13.627 12.21C4.6311 21.2059 3.43332 35.0469 10.0336 45.333L5.99173 53.845L8.222 56.0753L16.3868 52.1983C26.8009 60.0944 41.7067 59.2919 51.2078 49.7908C61.5854 39.4131 61.5854 22.5876 51.2078 12.21Z"/>
</mask>
<path d="M13.627 12.21L12.2128 10.7958L13.627 12.21ZM51.2078 12.21L52.622 10.7958V10.7958L51.2078 12.21ZM10.0336 45.333L11.8403 46.1909L12.3167 45.1876L11.7169 44.2529L10.0336 45.333ZM5.99173 53.845L4.18506 52.9872L3.57989 54.2616L4.57751 55.2593L5.99173 53.845ZM8.222 56.0753L6.80779 57.4895L7.80541 58.4872L9.07989 57.882L8.222 56.0753ZM16.3868 52.1983L17.5952 50.6046L16.6268 49.8703L15.5289 50.3916L16.3868 52.1983ZM15.0412 13.6242C24.6378 4.02761 40.197 4.02761 49.7935 13.6242L52.622 10.7958C41.4633 -0.362915 23.3715 -0.362915 12.2128 10.7958L15.0412 13.6242ZM11.7169 44.2529C5.61362 34.7414 6.7241 21.9413 15.0412 13.6242L12.2128 10.7958C2.53809 20.4704 1.25302 35.3524 8.35037 46.4131L11.7169 44.2529ZM8.22698 44.4751L4.18506 52.9872L7.79839 54.7029L11.8403 46.1909L8.22698 44.4751ZM4.57751 55.2593L6.80779 57.4895L9.63621 54.6611L7.40594 52.4308L4.57751 55.2593ZM9.07989 57.882L17.2447 54.0049L15.5289 50.3916L7.36411 54.2686L9.07989 57.882ZM49.7935 48.3765C41.0087 57.1614 27.2239 57.9052 17.5952 50.6046L15.1785 53.792C26.3779 62.2835 42.4046 61.4223 52.622 51.205L49.7935 48.3765ZM49.7935 13.6242C59.3901 23.2208 59.3901 38.78 49.7935 48.3765L52.622 51.205C63.7807 40.0463 63.7807 21.9545 52.622 10.7958L49.7935 13.6242Z" fill="#292929" mask="url(#path-1-inside-1_787_18483)"/>
<path d="M39.8574 34.0057L34.6612 35.9364L30.1352 31.4105L27.391 28.6663L29.3217 23.47L23.8433 17.9916L22.2472 19.5877C19.4771 22.3578 18.7999 26.6043 20.5571 30.1057C23.2971 35.5654 27.7396 40.0107 33.2033 42.7426C36.6895 44.4857 40.9 43.8024 43.6562 41.0463L45.2771 39.4254L39.8574 34.0057Z" stroke="#292929" stroke-width="2" stroke-linejoin="bevel"/>
</g>
<defs>
<clipPath id="clip0_787_18483">
<rect width="64" height="64" fill="white" transform="translate(0.0957031)"/>
</clipPath>
</defs>
</svg>
