<svg width="14" height="13" viewBox="0 0 14 13" fill="none" xmlns="http://www.w3.org/2000/svg">
<path d="M6.09194 0.968665C6.44936 0.193793 7.55064 0.193793 7.90806 0.968665L9.02264 3.38508C9.16831 3.70089 9.4676 3.91833 9.81296 3.95928L12.4555 4.2726C13.3029 4.37307 13.6432 5.42046 13.0167 5.99983L11.063 7.80658C10.8077 8.0427 10.6934 8.39454 10.7611 8.73565L11.2798 11.3457C11.4461 12.1827 10.5551 12.83 9.8105 12.4132L7.48844 11.1134C7.18497 10.9435 6.81503 10.9435 6.51156 11.1134L4.1895 12.4132C3.44489 12.83 2.55393 12.1827 2.72024 11.3457L3.23885 8.73565C3.30663 8.39454 3.19232 8.0427 2.93698 7.80658L0.983254 5.99983C0.356754 5.42046 0.697071 4.37307 1.54446 4.2726L4.18704 3.95928C4.5324 3.91833 4.83169 3.70089 4.97736 3.38508L6.09194 0.968665Z" fill="#FFE6C9"/>
</svg>
