<svg width="24" height="24" viewBox="0 0 24 24" fill="none" xmlns="http://www.w3.org/2000/svg">
<rect width="24" height="24" rx="4" fill="#F9F9F9"/>
<path d="M16 15V14.177C16 13.7681 15.751 13.4004 15.3714 13.2486L14.3543 12.8417C13.8714 12.6486 13.3211 12.8578 13.0885 13.323L13 13.5C13 13.5 11.75 13.25 10.75 12.25C9.75 11.25 9.5 10 9.5 10L9.67701 9.9115C10.1422 9.67891 10.3514 9.12857 10.1583 8.64568L9.75144 7.62861C9.59958 7.24895 9.23187 7 8.82297 7H8C7.44772 7 7 7.44772 7 8C7 12.4183 10.5817 16 15 16C15.5523 16 16 15.5523 16 15Z" fill="#1D1D1B"/>
</svg>
