<svg width="22" height="22" viewBox="0 0 22 22" fill="none" xmlns="http://www.w3.org/2000/svg">
<path fill-rule="evenodd" clip-rule="evenodd" d="M6.19961 0.599976C6.41178 0.599976 6.61527 0.684261 6.76529 0.83429C6.91532 0.984319 6.99961 1.1878 6.99961 1.39998V2.19998H14.9996V1.39998C14.9996 1.1878 15.0839 0.984319 15.2339 0.83429C15.384 0.684261 15.5874 0.599976 15.7996 0.599976C16.0118 0.599976 16.2153 0.684261 16.3653 0.83429C16.5153 0.984319 16.5996 1.1878 16.5996 1.39998V2.19998H18.9996C19.6361 2.19998 20.2466 2.45283 20.6967 2.90292C21.1468 3.35301 21.3996 3.96346 21.3996 4.59998V19C21.3996 19.6365 21.1468 20.2469 20.6967 20.697C20.2466 21.1471 19.6361 21.4 18.9996 21.4H2.99961C2.36309 21.4 1.75264 21.1471 1.30255 20.697C0.852466 20.2469 0.599609 19.6365 0.599609 19V4.59998C0.599609 3.96346 0.852466 3.35301 1.30255 2.90292C1.75264 2.45283 2.36309 2.19998 2.99961 2.19998H5.39961V1.39998C5.39961 1.1878 5.48389 0.984319 5.63392 0.83429C5.78395 0.684261 5.98744 0.599976 6.19961 0.599976ZM14.9996 3.79998V4.59998C14.9996 4.81215 15.0839 5.01563 15.2339 5.16566C15.384 5.31569 15.5874 5.39998 15.7996 5.39998C16.0118 5.39998 16.2153 5.31569 16.3653 5.16566C16.5153 5.01563 16.5996 4.81215 16.5996 4.59998V3.79998H18.9996C19.2118 3.79998 19.4153 3.88426 19.5653 4.03429C19.7153 4.18432 19.7996 4.3878 19.7996 4.59998V6.99998H2.19961V4.59998C2.19961 4.3878 2.28389 4.18432 2.43392 4.03429C2.58395 3.88426 2.78744 3.79998 2.99961 3.79998H5.39961V4.59998C5.39961 4.81215 5.48389 5.01563 5.63392 5.16566C5.78395 5.31569 5.98744 5.39998 6.19961 5.39998C6.41178 5.39998 6.61527 5.31569 6.76529 5.16566C6.91532 5.01563 6.99961 4.81215 6.99961 4.59998V3.79998H14.9996ZM2.19961 8.59998V19C2.19961 19.2121 2.28389 19.4156 2.43392 19.5657C2.58395 19.7157 2.78744 19.8 2.99961 19.8H18.9996C19.2118 19.8 19.4153 19.7157 19.5653 19.5657C19.7153 19.4156 19.7996 19.2121 19.7996 19V8.59998H2.19961ZM10.1996 11C10.1996 10.7878 10.2839 10.5843 10.4339 10.4343C10.584 10.2843 10.7874 10.2 10.9996 10.2C11.2118 10.2 11.4153 10.2843 11.5653 10.4343C11.7153 10.5843 11.7996 10.7878 11.7996 11C11.7996 11.2121 11.7153 11.4156 11.5653 11.5657C11.4153 11.7157 11.2118 11.8 10.9996 11.8C10.7874 11.8 10.584 11.7157 10.4339 11.5657C10.2839 11.4156 10.1996 11.2121 10.1996 11ZM14.1996 10.2C13.9874 10.2 13.784 10.2843 13.6339 10.4343C13.4839 10.5843 13.3996 10.7878 13.3996 11C13.3996 11.2121 13.4839 11.4156 13.6339 11.5657C13.784 11.7157 13.9874 11.8 14.1996 11.8C14.4118 11.8 14.6153 11.7157 14.7653 11.5657C14.9153 11.4156 14.9996 11.2121 14.9996 11C14.9996 10.7878 14.9153 10.5843 14.7653 10.4343C14.6153 10.2843 14.4118 10.2 14.1996 10.2ZM16.5996 11C16.5996 10.7878 16.6839 10.5843 16.8339 10.4343C16.984 10.2843 17.1874 10.2 17.3996 10.2C17.6118 10.2 17.8153 10.2843 17.9653 10.4343C18.1153 10.5843 18.1996 10.7878 18.1996 11C18.1996 11.2121 18.1153 11.4156 17.9653 11.5657C17.8153 11.7157 17.6118 11.8 17.3996 11.8C17.1874 11.8 16.984 11.7157 16.8339 11.5657C16.6839 11.4156 16.5996 11.2121 16.5996 11ZM17.3996 13.4C17.1874 13.4 16.984 13.4843 16.8339 13.6343C16.6839 13.7843 16.5996 13.9878 16.5996 14.2C16.5996 14.4121 16.6839 14.6156 16.8339 14.7657C16.984 14.9157 17.1874 15 17.3996 15C17.6118 15 17.8153 14.9157 17.9653 14.7657C18.1153 14.6156 18.1996 14.4121 18.1996 14.2C18.1996 13.9878 18.1153 13.7843 17.9653 13.6343C17.8153 13.4843 17.6118 13.4 17.3996 13.4ZM13.3996 14.2C13.3996 13.9878 13.4839 13.7843 13.6339 13.6343C13.784 13.4843 13.9874 13.4 14.1996 13.4C14.4118 13.4 14.6153 13.4843 14.7653 13.6343C14.9153 13.7843 14.9996 13.9878 14.9996 14.2C14.9996 14.4121 14.9153 14.6156 14.7653 14.7657C14.6153 14.9157 14.4118 15 14.1996 15C13.9874 15 13.784 14.9157 13.6339 14.7657C13.4839 14.6156 13.3996 14.4121 13.3996 14.2ZM10.9996 13.4C10.7874 13.4 10.584 13.4843 10.4339 13.6343C10.2839 13.7843 10.1996 13.9878 10.1996 14.2C10.1996 14.4121 10.2839 14.6156 10.4339 14.7657C10.584 14.9157 10.7874 15 10.9996 15C11.2118 15 11.4153 14.9157 11.5653 14.7657C11.7153 14.6156 11.7996 14.4121 11.7996 14.2C11.7996 13.9878 11.7153 13.7843 11.5653 13.6343C11.4153 13.4843 11.2118 13.4 10.9996 13.4ZM6.99961 14.2C6.99961 13.9878 7.08389 13.7843 7.23392 13.6343C7.38395 13.4843 7.58744 13.4 7.79961 13.4C8.01178 13.4 8.21527 13.4843 8.36529 13.6343C8.51532 13.7843 8.59961 13.9878 8.59961 14.2C8.59961 14.4121 8.51532 14.6156 8.36529 14.7657C8.21527 14.9157 8.01178 15 7.79961 15C7.58744 15 7.38395 14.9157 7.23392 14.7657C7.08389 14.6156 6.99961 14.4121 6.99961 14.2ZM4.59961 13.4C4.38744 13.4 4.18395 13.4843 4.03392 13.6343C3.88389 13.7843 3.79961 13.9878 3.79961 14.2C3.79961 14.4121 3.88389 14.6156 4.03392 14.7657C4.18395 14.9157 4.38744 15 4.59961 15C4.81178 15 5.01527 14.9157 5.16529 14.7657C5.31532 14.6156 5.39961 14.4121 5.39961 14.2C5.39961 13.9878 5.31532 13.7843 5.16529 13.6343C5.01527 13.4843 4.81178 13.4 4.59961 13.4ZM3.79961 17.4C3.79961 17.1878 3.88389 16.9843 4.03392 16.8343C4.18395 16.6843 4.38744 16.6 4.59961 16.6C4.81178 16.6 5.01527 16.6843 5.16529 16.8343C5.31532 16.9843 5.39961 17.1878 5.39961 17.4C5.39961 17.6121 5.31532 17.8156 5.16529 17.9657C5.01527 18.1157 4.81178 18.2 4.59961 18.2C4.38744 18.2 4.18395 18.1157 4.03392 17.9657C3.88389 17.8156 3.79961 17.6121 3.79961 17.4ZM7.79961 16.6C7.58744 16.6 7.38395 16.6843 7.23392 16.8343C7.08389 16.9843 6.99961 17.1878 6.99961 17.4C6.99961 17.6121 7.08389 17.8156 7.23392 17.9657C7.38395 18.1157 7.58744 18.2 7.79961 18.2C8.01178 18.2 8.21527 18.1157 8.36529 17.9657C8.51532 17.8156 8.59961 17.6121 8.59961 17.4C8.59961 17.1878 8.51532 16.9843 8.36529 16.8343C8.21527 16.6843 8.01178 16.6 7.79961 16.6ZM10.1996 17.4C10.1996 17.1878 10.2839 16.9843 10.4339 16.8343C10.584 16.6843 10.7874 16.6 10.9996 16.6C11.2118 16.6 11.4153 16.6843 11.5653 16.8343C11.7153 16.9843 11.7996 17.1878 11.7996 17.4C11.7996 17.6121 11.7153 17.8156 11.5653 17.9657C11.4153 18.1157 11.2118 18.2 10.9996 18.2C10.7874 18.2 10.584 18.1157 10.4339 17.9657C10.2839 17.8156 10.1996 17.6121 10.1996 17.4ZM14.1996 16.6C13.9874 16.6 13.784 16.6843 13.6339 16.8343C13.4839 16.9843 13.3996 17.1878 13.3996 17.4C13.3996 17.6121 13.4839 17.8156 13.6339 17.9657C13.784 18.1157 13.9874 18.2 14.1996 18.2C14.4118 18.2 14.6153 18.1157 14.7653 17.9657C14.9153 17.8156 14.9996 17.6121 14.9996 17.4C14.9996 17.1878 14.9153 16.9843 14.7653 16.8343C14.6153 16.6843 14.4118 16.6 14.1996 16.6Z" fill="#222222" fill-opacity="0.3"/>
</svg>
