<svg width="56" height="56" viewBox="0 0 56 56" fill="none" xmlns="http://www.w3.org/2000/svg">
<path fill-rule="evenodd" clip-rule="evenodd" d="M54.0788 0.736017C56.0403 2.10173 56.5901 4.89818 55.3073 6.98648L26.461 53.9553C26.1249 54.5025 25.6812 54.9656 25.1606 55.3124C24.6399 55.6592 24.0548 55.8815 23.4455 55.964C22.8362 56.0464 22.2174 55.987 21.6318 55.7899C21.0462 55.5928 20.5078 55.2627 20.0538 54.8224L1.38857 36.7575C0.556015 35.9516 0.0582568 34.8266 0.00479602 33.6301C-0.0486647 32.4335 0.346551 31.2633 1.1035 30.3769C1.86045 29.4906 2.91713 28.9607 4.04108 28.9038C5.16503 28.8468 6.26418 29.2676 7.09673 30.0735L22.0832 44.576L48.2077 2.04392C48.8235 1.04178 49.7879 0.34103 50.8889 0.0957641C51.9899 -0.149502 53.1373 0.0807959 54.0788 0.736017Z" fill="#836893"/>
</svg>
