<svg width="16" height="16" viewBox="0 0 16 16" fill="none" xmlns="http://www.w3.org/2000/svg">
<path d="M6.94045 7.99997L0.719947 1.78097C0.650215 1.71124 0.594901 1.62846 0.557163 1.53735C0.519424 1.44624 0.5 1.34859 0.5 1.24997C0.5 1.15135 0.519424 1.0537 0.557163 0.962596C0.594901 0.871487 0.650215 0.788703 0.719947 0.718971C0.789679 0.649239 0.872463 0.593925 0.963572 0.556186C1.05468 0.518447 1.15233 0.499023 1.25095 0.499023C1.34956 0.499023 1.44721 0.518447 1.53832 0.556186C1.62943 0.593925 1.71222 0.649239 1.78195 0.718971L8.00095 6.93947L14.2199 0.718971C14.3608 0.578141 14.5518 0.499023 14.7509 0.499023C14.9501 0.499023 15.1411 0.578141 15.2819 0.718971C15.4228 0.859801 15.5019 1.05081 15.5019 1.24997C15.5019 1.44913 15.4228 1.64014 15.2819 1.78097L9.06145 7.99997L15.2819 14.219C15.4228 14.3598 15.5019 14.5508 15.5019 14.75C15.5019 14.9491 15.4228 15.1401 15.2819 15.281C15.1411 15.4218 14.9501 15.5009 14.7509 15.5009C14.5518 15.5009 14.3608 15.4218 14.2199 15.281L8.00095 9.06047L1.78195 15.281C1.64112 15.4218 1.45011 15.5009 1.25095 15.5009C1.05178 15.5009 0.860777 15.4218 0.719947 15.281C0.579117 15.1401 0.5 14.9491 0.5 14.75C0.5 14.5508 0.579117 14.3598 0.719947 14.219L6.94045 7.99997Z" fill="#222222" fill-opacity="0.3"/>
</svg>
