<svg width="10" height="11" viewBox="0 0 10 11" fill="none" xmlns="http://www.w3.org/2000/svg">
<path d="M4.2929 5.5L0.145899 1.354C0.0994111 1.30751 0.062535 1.25232 0.0373759 1.19158C0.0122168 1.13084 -0.000732421 1.06574 -0.000732422 0.999998C-0.000732422 0.934254 0.0122168 0.869154 0.0373759 0.808415C0.062535 0.747676 0.0994111 0.692486 0.145899 0.645998C0.192387 0.59951 0.247576 0.562634 0.308316 0.537475C0.369055 0.512316 0.434155 0.499367 0.499899 0.499367C0.565643 0.499367 0.630743 0.512316 0.691483 0.537475C0.752222 0.562634 0.807411 0.59951 0.853899 0.645998L4.9999 4.793L9.1459 0.645998C9.23979 0.552112 9.36712 0.499367 9.4999 0.499367C9.63267 0.499367 9.76001 0.552112 9.8539 0.645998C9.94779 0.739885 10.0005 0.867223 10.0005 0.999998C10.0005 1.13277 9.94779 1.26011 9.8539 1.354L5.7069 5.5L9.8539 9.646C9.94779 9.73988 10.0005 9.86722 10.0005 10C10.0005 10.1328 9.94779 10.2601 9.8539 10.354C9.76001 10.4479 9.63267 10.5006 9.4999 10.5006C9.36712 10.5006 9.23979 10.4479 9.1459 10.354L4.9999 6.207L0.853899 10.354C0.760013 10.4479 0.632675 10.5006 0.499899 10.5006C0.367123 10.5006 0.239786 10.4479 0.145899 10.354C0.0520124 10.2601 -0.000732422 10.1328 -0.000732422 10C-0.000732422 9.86722 0.0520124 9.73988 0.145899 9.646L4.2929 5.5Z" fill="#222222" fill-opacity="0.3"/>
</svg>
