<svg width="33" height="33" viewBox="0 0 33 33" fill="none" xmlns="http://www.w3.org/2000/svg">
<path fill-rule="evenodd" clip-rule="evenodd" d="M8.46728 16.2461L8.44138 16.2204L8.41457 16.1956C8.07332 15.8806 7.76114 15.5062 7.49382 15.0736C6.0011 12.658 6.68204 9.84133 8.47599 8.67259C10.2217 7.53526 12.9029 8.05807 14.3874 10.4308L15.3515 11.9716H16.8143L17.7784 10.4308C19.2629 8.05807 21.9441 7.53526 23.6898 8.67259C25.4838 9.84133 26.1647 12.658 24.672 15.0736C24.3763 15.5521 24.0257 15.9594 23.6415 16.294L23.6108 16.3208L23.5812 16.3488L16.0807 23.4394H15.7093L8.46728 16.2461ZM16.8764 25.4394H14.8848L7.05785 17.6651C6.58289 17.2266 6.15486 16.7115 5.79244 16.125C3.82373 12.939 4.53641 8.8522 7.38426 6.99685C9.67295 5.50579 12.6441 5.9097 14.7445 7.77947C15.2478 8.22745 15.701 8.75957 16.0829 9.36993C16.4648 8.75957 16.918 8.22745 17.4213 7.77947C19.5217 5.9097 22.4929 5.50579 24.7815 6.99685C27.6294 8.8522 28.3421 12.939 26.3734 16.125C25.9725 16.7737 25.4913 17.3351 24.9551 17.8021L16.8764 25.4394Z" fill="#292929"/>
</svg>
