<svg width="18" height="17" viewBox="0 0 18 17" fill="none" xmlns="http://www.w3.org/2000/svg">
<path d="M5.99992 10.75C6.66514 10.7498 7.31154 10.9708 7.8375 11.3781C8.36345 11.7854 8.73911 12.3559 8.90542 13H17.2499C17.4373 12.9997 17.6181 13.0695 17.7566 13.1958C17.8951 13.322 17.9813 13.4956 17.9982 13.6822C18.0152 13.8689 17.9616 14.0551 17.8481 14.2042C17.7346 14.3534 17.5693 14.4546 17.3849 14.488L17.2499 14.5L8.90542 14.5015C8.73967 15.1461 8.36425 15.7174 7.83824 16.1252C7.31224 16.5331 6.66553 16.7545 5.99992 16.7545C5.33431 16.7545 4.6876 16.5331 4.16159 16.1252C3.63559 15.7174 3.26016 15.1461 3.09442 14.5015L0.749918 14.5C0.562499 14.5003 0.381742 14.4305 0.243243 14.3042C0.104744 14.178 0.0185387 14.0044 0.0016045 13.8178C-0.0153297 13.6311 0.0382338 13.4449 0.151747 13.2958C0.26526 13.1466 0.430497 13.0454 0.614918 13.012L0.749918 13H3.09442C3.26072 12.3559 3.63639 11.7854 4.16234 11.3781C4.68829 10.9708 5.3347 10.7498 5.99992 10.75ZM5.99992 12.25C5.60209 12.25 5.22056 12.408 4.93926 12.6893C4.65795 12.9706 4.49992 13.3522 4.49992 13.75C4.49992 14.1478 4.65795 14.5294 4.93926 14.8107C5.22056 15.092 5.60209 15.25 5.99992 15.25C6.39774 15.25 6.77927 15.092 7.06058 14.8107C7.34188 14.5294 7.49992 14.1478 7.49992 13.75C7.49992 13.3522 7.34188 12.9706 7.06058 12.6893C6.77927 12.408 6.39774 12.25 5.99992 12.25ZM11.9999 0.25C12.6651 0.249831 13.3115 0.470764 13.8375 0.878058C14.3634 1.28535 14.7391 1.85591 14.9054 2.5H17.2499C17.4373 2.49966 17.6181 2.56949 17.7566 2.69576C17.8951 2.82203 17.9813 2.99558 17.9982 3.18223C18.0152 3.36889 17.9616 3.55511 17.8481 3.70425C17.7346 3.85338 17.5693 3.95461 17.3849 3.988L17.2499 4L14.9054 4.0015C14.7397 4.64614 14.3642 5.21736 13.8382 5.62523C13.3122 6.0331 12.6655 6.25446 11.9999 6.25446C11.3343 6.25446 10.6876 6.0331 10.1616 5.62523C9.63559 5.21736 9.26016 4.64614 9.09442 4.0015L0.749918 4C0.562499 4.00034 0.381742 3.93051 0.243243 3.80424C0.104744 3.67797 0.0185387 3.50442 0.0016045 3.31777C-0.0153297 3.13111 0.0382338 2.94489 0.151747 2.79575C0.26526 2.64662 0.430497 2.54539 0.614918 2.512L0.749918 2.5H9.09442C9.26072 1.85591 9.63639 1.28535 10.1623 0.878058C10.6883 0.470764 11.3347 0.249831 11.9999 0.25ZM11.9999 1.75C11.6021 1.75 11.2206 1.90804 10.9393 2.18934C10.658 2.47064 10.4999 2.85218 10.4999 3.25C10.4999 3.64782 10.658 4.02936 10.9393 4.31066C11.2206 4.59196 11.6021 4.75 11.9999 4.75C12.3977 4.75 12.7793 4.59196 13.0606 4.31066C13.3419 4.02936 13.4999 3.64782 13.4999 3.25C13.4999 2.85218 13.3419 2.47064 13.0606 2.18934C12.7793 1.90804 12.3977 1.75 11.9999 1.75Z" fill="#836893"/>
</svg>
