<svg width="214" height="42" viewBox="0 0 214 42" fill="none" xmlns="http://www.w3.org/2000/svg">
<path fill-rule="evenodd" clip-rule="evenodd" d="M38.4318 11.5204C38.4318 8.6885 36.1362 6.39282 33.3043 6.39282H24.7584C21.9266 6.39282 19.6309 8.68849 19.6309 11.5204V17.5025C19.6309 20.3344 17.3352 22.63 14.5033 22.63H5.95767C3.12581 22.63 0.830139 24.9257 0.830139 27.7576V36.3034C0.830139 39.1353 3.12581 41.431 5.95767 41.431H14.5036C17.3354 41.431 19.6311 39.1353 19.6311 36.3035V30.3213C19.6311 27.4894 21.9268 25.1938 24.7586 25.1938H33.3043C36.1362 25.1938 38.4318 22.8981 38.4318 20.0662V11.5204Z" fill="#1D1D1B"/>
<path fill-rule="evenodd" clip-rule="evenodd" d="M38.0001 35.8725C38.0001 38.7043 35.7044 41 32.8725 41H24.1276C21.2957 41 19.0001 38.7043 19.0001 35.8725V30.3212C19.0001 27.4894 16.7044 25.1937 13.8725 25.1937H5.95767C3.12581 25.1937 0.830139 22.898 0.830139 20.0662V11.5203C0.830139 8.68842 3.12581 6.39274 5.95767 6.39274H14.5036C17.3354 6.39274 19.6311 8.68841 19.6311 11.5203V17.8725C19.6311 20.7043 21.9268 23 24.7586 23H32.8725C35.7044 23 38.0001 25.2957 38.0001 28.1275V35.8725Z" fill="#FC2E2E"/>
<path d="M63.0195 16.8395C66.653 17.1807 68.4697 18.6222 68.4697 21.1639C68.4697 22.6821 67.83 23.8677 66.5506 24.7206C65.2712 25.5735 63.4119 26 60.9725 26H48.7671V8.0885H60.9981C63.0622 8.0885 64.6998 8.5235 65.9109 9.39348C67.1391 10.2464 67.7533 11.3808 67.7533 12.7967C67.7533 13.9567 67.3183 14.8778 66.4483 15.5602C65.5953 16.2254 64.4524 16.6519 63.0195 16.8395ZM52.7588 11.1846V15.4578H60.7934C61.6804 15.4578 62.3969 15.2702 62.9427 14.8949C63.4886 14.5025 63.7616 13.9737 63.7616 13.3084C63.7616 12.6261 63.4886 12.1058 62.9427 11.7476C62.4139 11.3723 61.6975 11.1846 60.7934 11.1846H52.7588ZM60.5887 22.9039C61.9022 22.9039 62.8745 22.7333 63.5057 22.3921C64.1539 22.0339 64.478 21.4539 64.478 20.6521C64.478 19.168 63.2669 18.426 60.8445 18.426H52.7588V22.9039H60.5887ZM88.7739 26L86.906 21.9827H75.5961L73.7282 26H69.7621L78.2573 8.0885H84.3728L92.8679 26H88.7739ZM76.9779 18.9889H85.5242L81.251 9.7773L76.9779 18.9889ZM112.253 8.0885H116.091V26H109.284L99.433 10.2123V26H95.5948V8.0885H102.401L112.253 23.8762V8.0885ZM141.382 26H136.264L128.485 18.5283H124.75V26H120.758V8.0885H124.75V15.4578H128.434L135.804 8.0885H140.64L131.607 16.7372L141.382 26ZM144.222 26V8.0885H148.213V26H144.222ZM168.041 26L161.491 19.1936H156.859V26H152.868V8.0885H156.859H165.175C167.239 8.0885 168.911 8.57467 170.191 9.54701C171.487 10.5023 172.135 11.9096 172.135 13.769C172.135 15.4919 171.589 16.7969 170.498 17.6839C169.423 18.5539 167.947 19.0486 166.071 19.168L173.133 26H168.041ZM156.859 11.287V16.1743H164.971C165.943 16.1743 166.711 15.9696 167.274 15.5602C167.854 15.1337 168.144 14.5366 168.144 13.769C168.144 12.9843 167.854 12.3787 167.274 11.9523C166.694 11.5087 165.926 11.287 164.971 11.287H156.859Z" fill="#1D1D1B"/>
<path d="M180.001 22.8527H191.566V26H173.962V23.1086L184.095 16.686C185.135 16.0719 185.895 15.526 186.372 15.0484C186.867 14.5537 187.114 13.9652 187.114 13.2828C187.114 12.4811 186.756 11.8926 186.04 11.5173C185.323 11.1249 184.368 10.9288 183.174 10.9288C180.24 10.9288 178.602 12.0802 178.261 14.3831L174.551 14.1528C174.772 12.0034 175.651 10.4085 177.186 9.36789C178.738 8.31026 180.726 7.78145 183.148 7.78145C185.451 7.78145 187.327 8.2335 188.777 9.1376C190.227 10.0246 190.952 11.3296 190.952 13.0525C190.952 14.1102 190.603 15.074 189.903 15.944C189.204 16.7969 188.01 17.7351 186.321 18.7586L180.001 22.8527ZM208.53 19.0145H212.317V22.1618H208.53V26H204.691V22.1618H192.384V19.2704L202.312 8.0885H208.53V19.0145ZM196.58 19.0145H204.691V9.93083L196.58 19.0145Z" fill="#FC2E2E"/>
<path d="M52.7579 32.992C53.4857 32.992 54.0609 33.1707 54.4833 33.5281C54.9057 33.879 55.1169 34.3794 55.1169 35.0293C55.1169 35.6856 54.9057 36.186 54.4833 36.5304C54.0674 36.8749 53.4922 37.0471 52.7579 37.0471H49.1512V39.8154H48.4104V32.992H49.1512H52.7579ZM52.7092 36.4622C53.2226 36.4622 53.6287 36.3387 53.9276 36.0918C54.2266 35.8448 54.376 35.4907 54.376 35.0293C54.376 34.5679 54.2266 34.217 53.9276 33.9765C53.6287 33.7296 53.2226 33.6061 52.7092 33.6061H49.1512V36.4622H52.7092ZM62.0621 37.359V37.4565H56.4962C56.5417 38.0933 56.7951 38.5807 57.2565 38.9186C57.7244 39.2501 58.3353 39.4158 59.0891 39.4158C59.6285 39.4158 60.0866 39.3313 60.4635 39.1623C60.8469 38.9934 61.1199 38.7692 61.2823 38.4897L61.9452 38.519C61.7632 38.9609 61.4253 39.3085 60.9314 39.562C60.444 39.8089 59.8299 39.9324 59.0891 39.9324C58.0753 39.9324 57.2728 39.705 56.6814 39.2501C56.09 38.7952 55.7943 38.1323 55.7943 37.2615C55.7943 36.3972 56.0868 35.7376 56.6716 35.2827C57.263 34.8213 58.0363 34.5906 58.9916 34.5906C59.9729 34.5906 60.73 34.8246 61.2628 35.2925C61.7957 35.7539 62.0621 36.4427 62.0621 37.359ZM58.9916 35.1073C58.2963 35.1073 57.7211 35.2697 57.2663 35.5947C56.8179 35.9131 56.5644 36.3745 56.5059 36.9788H61.3701C61.3506 36.407 61.1264 35.9521 60.6975 35.6141C60.2686 35.2762 59.6999 35.1073 58.9916 35.1073ZM63.3233 39.8154V34.7076H64.0154V39.2403H67.5733V34.7076H68.2654V39.2403H71.8233V34.7076H72.5154V39.8154H63.3233ZM80.0536 37.359V37.4565H74.4876C74.5331 38.0933 74.7866 38.5807 75.248 38.9186C75.7159 39.2501 76.3267 39.4158 77.0805 39.4158C77.6199 39.4158 78.0781 39.3313 78.455 39.1623C78.8384 38.9934 79.1113 38.7692 79.2738 38.4897L79.9366 38.519C79.7547 38.9609 79.4168 39.3085 78.9229 39.562C78.4355 39.8089 77.8214 39.9324 77.0805 39.9324C76.0668 39.9324 75.2642 39.705 74.6728 39.2501C74.0815 38.7952 73.7858 38.1323 73.7858 37.2615C73.7858 36.3972 74.0782 35.7376 74.6631 35.2827C75.2545 34.8213 76.0278 34.5906 76.9831 34.5906C77.9643 34.5906 78.7214 34.8246 79.2543 35.2925C79.7872 35.7539 80.0536 36.4427 80.0536 37.359ZM76.9831 35.1073C76.2877 35.1073 75.7126 35.2697 75.2577 35.5947C74.8093 35.9131 74.5559 36.3745 74.4974 36.9788H79.3615C79.342 36.407 79.1178 35.9521 78.6889 35.6141C78.26 35.2762 77.6914 35.1073 76.9831 35.1073ZM81.3147 39.8154V34.7076H82.0166V36.9203H86.3641V34.7076H87.0659V39.8154H86.3641V37.4955H82.0166V39.8154H81.3147ZM93.4878 34.7076H94.5308V39.8154H93.8485V35.1658L89.7447 39.8154H88.7017V34.7076H89.384V39.3573L93.4878 34.7076ZM102.062 37.359V37.4565H96.4962C96.5417 38.0933 96.7952 38.5807 97.2566 38.9186C97.7245 39.2501 98.3353 39.4158 99.0891 39.4158C99.6285 39.4158 100.087 39.3313 100.464 39.1623C100.847 38.9934 101.12 38.7692 101.282 38.4897L101.945 38.519C101.763 38.9609 101.425 39.3085 100.931 39.562C100.444 39.8089 99.83 39.9324 99.0891 39.9324C98.0754 39.9324 97.2728 39.705 96.6814 39.2501C96.0901 38.7952 95.7944 38.1323 95.7944 37.2615C95.7944 36.3972 96.0868 35.7376 96.6717 35.2827C97.2631 34.8213 98.0364 34.5906 98.9917 34.5906C99.9729 34.5906 100.73 34.8246 101.263 35.2925C101.796 35.7539 102.062 36.4427 102.062 37.359ZM98.9917 35.1073C98.2963 35.1073 97.7212 35.2697 97.2663 35.5947C96.8179 35.9131 96.5645 36.3745 96.506 36.9788H101.37C101.351 36.407 101.126 35.9521 100.698 35.6141C100.269 35.2762 99.7 35.1073 98.9917 35.1073ZM110.421 37.1835C111.545 37.2875 112.107 37.7099 112.107 38.4507C112.107 39.3605 111.354 39.8154 109.846 39.8154H106.512V34.7076H109.7C110.441 34.7076 110.993 34.8246 111.357 35.0585C111.721 35.286 111.903 35.5947 111.903 35.9846C111.903 36.6474 111.409 37.0471 110.421 37.1835ZM107.214 35.2242V36.9691H109.612C110.671 36.9691 111.201 36.6799 111.201 36.1015C111.201 35.5167 110.652 35.2242 109.554 35.2242H107.214ZM109.71 39.2988C110.34 39.2988 110.782 39.2176 111.035 39.0551C111.289 38.8926 111.415 38.6652 111.415 38.3728C111.415 38.0608 111.279 37.8301 111.006 37.6807C110.733 37.5247 110.275 37.4467 109.632 37.4467H107.214V39.2988H109.71ZM116.938 39.2208C116.353 38.7464 116.061 38.0933 116.061 37.2615C116.061 36.4297 116.353 35.7766 116.938 35.3022C117.523 34.8278 118.303 34.5906 119.278 34.5906C120.253 34.5906 121.032 34.8278 121.617 35.3022C122.202 35.7766 122.494 36.4297 122.494 37.2615C122.494 38.0933 122.202 38.7464 121.617 39.2208C121.032 39.6952 120.253 39.9324 119.278 39.9324C118.303 39.9324 117.523 39.6952 116.938 39.2208ZM117.445 35.7214C116.99 36.1048 116.763 36.6182 116.763 37.2615C116.763 37.9049 116.99 38.4215 117.445 38.8114C117.9 39.1948 118.511 39.3865 119.278 39.3865C120.045 39.3865 120.655 39.1948 121.11 38.8114C121.572 38.4215 121.802 37.9049 121.802 37.2615C121.802 36.6182 121.572 36.1048 121.11 35.7214C120.655 35.3315 120.045 35.1365 119.278 35.1365C118.511 35.1365 117.9 35.3315 117.445 35.7214ZM128.921 39.2403H129.72V41.1996H129.057V39.8154H123.637V41.1996H122.974V39.2403H123.491C123.634 39.0324 123.754 38.7042 123.852 38.2558C123.956 37.8009 124.027 37.398 124.066 37.0471C124.105 36.6897 124.16 36.0593 124.232 35.156C124.251 34.961 124.264 34.8116 124.271 34.7076H128.921V39.2403ZM128.219 39.2403V35.2827H124.865C124.768 36.407 124.671 37.268 124.573 37.8659C124.482 38.4637 124.352 38.9219 124.183 39.2403H128.219ZM135.573 34.7076H136.616V39.8154H135.933V35.1658L131.829 39.8154H130.786V34.7076H131.469V39.3573L135.573 34.7076ZM138.25 39.8154V34.7076H138.951V36.9203H143.299V34.7076H144.001V39.8154H143.299V37.4955H138.951V39.8154H138.25ZM154.859 39.8154H153.855L150.873 37.5052H149.527V39.8154H148.826V34.7076H149.527V36.9496H150.892L153.768 34.7076H154.694L151.448 37.1738L154.859 39.8154ZM156.69 34.7076H161.301V39.8154H160.599V35.2827H157.314C157.301 35.4712 157.281 35.7409 157.255 36.0918C157.223 36.6182 157.194 37.0048 157.168 37.2518C157.148 37.4987 157.112 37.8041 157.06 38.1681C157.015 38.5255 156.956 38.7822 156.885 38.9381C156.82 39.0876 156.729 39.2533 156.612 39.4353C156.502 39.6107 156.362 39.7277 156.193 39.7862C156.03 39.8447 155.835 39.8739 155.608 39.8739C155.53 39.8739 155.381 39.8674 155.16 39.8544V39.2793C155.29 39.2923 155.39 39.2988 155.462 39.2988C155.923 39.2988 156.219 38.9934 156.349 38.3825C156.485 37.7717 156.599 36.5467 156.69 34.7076ZM167.729 34.7076H168.772V39.8154H168.089V35.1658L163.986 39.8154H162.943V34.7076H163.625V39.3573L167.729 34.7076ZM176.44 39.8154H175.436L172.453 37.5052H171.108V39.8154H170.406V34.7076H171.108V36.9496H172.472L175.348 34.7076H176.274L173.028 37.1738L176.44 39.8154Z" fill="#1D1D1B"/>
</svg>
