<svg width="30" height="30" viewBox="0 0 30 30" fill="none" xmlns="http://www.w3.org/2000/svg">
<rect width="30" height="30" rx="4" fill="#F9F9F9"/>
<path d="M20 18.75V17.7213C20 17.2102 19.6888 16.7505 19.2142 16.5607L17.9429 16.0522C17.3393 15.8107 16.6514 16.0723 16.3606 16.6537L16.25 16.875C16.25 16.875 14.6875 16.5625 13.4375 15.3125C12.1875 14.0625 11.875 12.5 11.875 12.5L12.0963 12.3894C12.6777 12.0986 12.9393 11.4107 12.6978 10.8071L12.1893 9.53576C11.9995 9.06119 11.5398 8.75 11.0287 8.75H10C9.30964 8.75 8.75 9.30964 8.75 10C8.75 15.5228 13.2272 20 18.75 20C19.4404 20 20 19.4404 20 18.75Z" fill="#0063D7"/>
</svg>
